<?xml version="1.0" encoding="UTF-8" standalone="no"?>
<!-- Created with Inkscape (http://www.inkscape.org/) -->

<svg
   xmlns:dc="http://purl.org/dc/elements/1.1/"
   xmlns:cc="http://creativecommons.org/ns#"
   xmlns:rdf="http://www.w3.org/1999/02/22-rdf-syntax-ns#"
   xmlns:svg="http://www.w3.org/2000/svg"
   xmlns="http://www.w3.org/2000/svg"
   xmlns:sodipodi="http://sodipodi.sourceforge.net/DTD/sodipodi-0.dtd"
   xmlns:inkscape="http://www.inkscape.org/namespaces/inkscape"
   version="1.1"
   id="svg2"
   xml:space="preserve"
   width="264.444"
   height="264.07333"
   viewBox="0 0 264.444 264.07333"
   sodipodi:docname="org-ubc.svg"
   inkscape:version="0.92.5 (2060ec1f9f, 2020-04-08)"><metadata
     id="metadata8"><rdf:RDF><cc:Work
         rdf:about=""><dc:format>image/svg+xml</dc:format><dc:type
           rdf:resource="http://purl.org/dc/dcmitype/StillImage" /><dc:title></dc:title></cc:Work></rdf:RDF></metadata><defs
     id="defs6"><clipPath
       clipPathUnits="userSpaceOnUse"
       id="clipPath18"><path
         d="M 0,198.055 H 198.333 V 0 H 0 Z"
         id="path16"
         inkscape:connector-curvature="0" /></clipPath></defs><sodipodi:namedview
     pagecolor="#ffffff"
     bordercolor="#666666"
     borderopacity="1"
     objecttolerance="10"
     gridtolerance="10"
     guidetolerance="10"
     inkscape:pageopacity="0"
     inkscape:pageshadow="2"
     inkscape:window-width="891"
     inkscape:window-height="480"
     id="namedview4"
     showgrid="false"
     inkscape:zoom="0.89369115"
     inkscape:cx="132.222"
     inkscape:cy="132.03667"
     inkscape:window-x="96"
     inkscape:window-y="54"
     inkscape:window-maximized="0"
     inkscape:current-layer="g10" /><g
     id="g10"
     inkscape:groupmode="layer"
     inkscape:label="org-ubc"
     transform="matrix(1.3333333,0,0,-1.3333333,0,264.07333)"><g
       id="g12"><g
         id="g14"
         clip-path="url(#clipPath18)"><g
           id="g20"
           transform="translate(99.1665,110.4754)"><path
             d="m 0,0 5.278,-38.287 17.346,28.985 -7.36,-31.882 18.7,17.891 -9.738,-23.619 15.559,11.611 C 32.543,-55.01 26.232,-66.059 0,-75.041 c -26.231,8.982 -32.543,20.031 -39.785,39.74 l 15.559,-11.611 -9.738,23.619 18.7,-17.891 -7.36,31.882 17.347,-28.985 z"
             style="fill:#0e1531;fill-opacity:1;fill-rule:nonzero;stroke:none"
             id="path22"
             inkscape:connector-curvature="0" /></g><g
           id="g24"
           transform="translate(71.6871,123.3037)"><path
             d="m 0,0 c -7.948,0 -12.695,4.253 -12.695,11.4 v 17.108 h 6.59 V 11.669 c 0,-4.152 2.183,-6.435 6.156,-6.435 4.074,0 6.234,2.187 6.234,6.317 v 16.957 h 6.633 V 11.513 C 12.918,4.41 7.969,0 0,0"
             style="fill:#0e1531;fill-opacity:1;fill-rule:nonzero;stroke:none"
             id="path26"
             inkscape:connector-curvature="0" /></g><g
           id="g28"
           transform="translate(99.4136,123.7774)"><path
             d="m 0,0 h -9.202 v 28.034 h 9.339 c 6.827,0 10.589,-2.651 10.589,-7.445 0,-2.524 -1.316,-4.466 -3.828,-5.655 3.368,-1.189 5.079,-3.414 5.079,-6.629 C 11.977,2.946 7.726,0 0,0 M -2.836,4.682 H 0 c 2.563,0 5.609,0.654 5.609,3.779 0,3.221 -3.097,3.906 -5.703,3.906 h -2.742 z m 0,12.09 h 2.395 c 3.206,0 4.98,1.203 4.98,3.384 0,2.145 -1.546,3.191 -4.719,3.191 h -2.656 z"
             style="fill:#0e1531;fill-opacity:1;fill-rule:nonzero;stroke:none"
             id="path30"
             inkscape:connector-curvature="0" /></g><g
           id="g32"
           transform="translate(129.847,123.3037)"><path
             d="m 0,0 c -9.074,0 -14.933,5.666 -14.933,14.453 0,8.684 6.073,14.523 15.112,14.523 3.352,0 6.172,-0.66 8.622,-2.02 L 9.015,26.837 8.031,21.129 7.597,21.418 c -2.406,1.615 -4.695,2.36 -7.195,2.36 -5.391,0 -8.613,-3.474 -8.613,-9.29 0,-5.71 3.332,-9.254 8.702,-9.254 2.544,0 5.047,0.764 7.653,2.332 L 8.574,7.824 9.503,2.499 9.296,2.379 C 6.621,0.847 3.32,0 0,0"
             style="fill:#0e1531;fill-opacity:1;fill-rule:nonzero;stroke:none"
             id="path34"
             inkscape:connector-curvature="0" /></g><g
           id="g36"
           transform="translate(99.1667,29.4964)"><path
             d="m 0,0 c -30.969,8.773 -45.75,29.219 -45.75,58.367 v 68.996 h 91.5 V 58.367 C 45.75,29.219 30.968,8.773 0,0 M -49.5,131.113 V 57.898 C -49.5,27.128 -32.758,4.85 0,-3.887 32.757,4.85 49.5,27.128 49.5,57.898 v 73.215 z"
             style="fill:#0e1531;fill-opacity:1;fill-rule:nonzero;stroke:none"
             id="path38"
             inkscape:connector-curvature="0" /></g><g
           id="g40"
           transform="translate(99.1683,113.8479)"><path
             d="M 0,0 C 6.902,0 7.835,-2.8 13.395,-2.766 18.934,-2.8 19.882,0 26.785,0 33.687,0 34.636,-2.8 40.18,-2.766 V 3.662 C 34.636,3.625 33.687,6.391 26.785,6.391 19.882,6.391 18.934,3.625 13.395,3.662 7.835,3.625 6.902,6.391 0,6.391 c -6.903,0 -7.836,-2.766 -13.395,-2.729 -5.539,-0.037 -6.488,2.729 -13.39,2.729 -6.903,0 -7.856,-2.766 -13.395,-2.729 V -2.766 C -34.641,-2.8 -33.688,0 -26.785,0 c 6.902,0 7.851,-2.8 13.39,-2.766 C -7.836,-2.8 -6.903,0 0,0"
             style="fill:#0e1531;fill-opacity:1;fill-rule:nonzero;stroke:none"
             id="path42"
             inkscape:connector-curvature="0" /></g><g
           id="g44"
           transform="translate(103.5415,102.2322)"><path
             d="m 0,0 c 3.33,-0.797 4.914,-2.318 9.021,-2.292 5.539,-0.035 6.488,2.766 13.39,2.766 6.902,0 7.852,-2.801 13.396,-2.766 V 4.136 C 30.263,4.099 29.313,6.864 22.411,6.864 15.509,6.864 14.56,4.099 9.021,4.136 4.559,4.106 3.074,5.881 -0.907,6.583 Z"
             style="fill:#0e1531;fill-opacity:1;fill-rule:nonzero;stroke:none"
             id="path46"
             inkscape:connector-curvature="0" /></g><g
           id="g48"
           transform="translate(85.7737,99.9401)"><path
             d="M 0,0 C 4.106,-0.026 5.69,1.495 9.018,2.291 L 9.925,8.875 C 5.946,8.173 4.461,6.398 0,6.428 -5.539,6.391 -6.489,9.156 -13.391,9.156 c -6.902,0 -7.855,-2.765 -13.394,-2.728 V 0 c 5.539,-0.035 6.492,2.766 13.394,2.766 C -6.489,2.766 -5.539,-0.035 0,0"
             style="fill:#0e1531;fill-opacity:1;fill-rule:nonzero;stroke:none"
             id="path50"
             inkscape:connector-curvature="0" /></g><g
           id="g52"
           transform="translate(105.142,90.6215)"><path
             d="M 0,0 C 1.883,-0.647 3.33,-1.438 5.566,-1.718 L 9.425,4.728 C 8.822,4.646 8.163,4.6 7.421,4.605 3.602,4.579 1.966,5.876 -0.922,6.691 Z"
             style="fill:#0e1531;fill-opacity:1;fill-rule:nonzero;stroke:none"
             id="path54"
             inkscape:connector-curvature="0" /></g><g
           id="g56"
           transform="translate(122.8118,91.3336)"><path
             d="m 0,0 c 0.902,0.142 1.928,0.23 3.141,0.23 6.902,0 7.852,-2.8 13.395,-2.766 V 3.892 C 10.993,3.855 10.043,6.621 3.141,6.621 2.558,6.621 2.02,6.599 1.515,6.563 Z"
             style="fill:#0e1531;fill-opacity:1;fill-rule:nonzero;stroke:none"
             id="path58"
             inkscape:connector-curvature="0" /></g><g
           id="g60"
           transform="translate(75.5215,91.334)"><path
             d="m 0,0 -1.515,6.563 c -0.504,0.036 -1.041,0.057 -1.623,0.057 -6.903,0 -7.856,-2.765 -13.395,-2.728 V -2.536 C -10.994,-2.571 -10.041,0.23 -3.138,0.23 -1.927,0.23 -0.902,0.142 0,0"
             style="fill:#0e1531;fill-opacity:1;fill-rule:nonzero;stroke:none"
             id="path62"
             inkscape:connector-curvature="0" /></g><g
           id="g64"
           transform="translate(87.6251,88.9028)"><path
             d="M 0,0 C 2.237,0.28 3.684,1.07 5.566,1.718 L 6.488,8.409 C 3.602,7.594 1.966,6.298 -1.851,6.323 -2.595,6.318 -3.255,6.365 -3.859,6.448 Z"
             style="fill:#0e1531;fill-opacity:1;fill-rule:nonzero;stroke:none"
             id="path66"
             inkscape:connector-curvature="0" /></g></g></g></g></svg>